HIERARCHY
ROOT Hips
{
	OFFSET 0.00000 0.00000 0.00000
	CHANNELS 6 Xposition Yposition Zposition Zrotation Yrotation Xrotation 
	JOINT LHipJoint
	{
		OFFSET 0 0 0
		CHANNELS 3 Zrotation Yrotation Xrotation
		JOINT LeftUpLeg
		{
			OFFSET 1.41496 -1.84582 0.78394
			CHANNELS 3 Zrotation Yrotation Xrotation
			JOINT LeftLeg
			{
				OFFSET 2.58040 -7.08960 0.00000
				CHANNELS 3 Zrotation Yrotation Xrotation
				JOINT LeftFoot
				{
					OFFSET 2.64719 -7.27309 0.00000
					CHANNELS 3 Zrotation Yrotation Xrotation
					JOINT LeftToeBase
					{
						OFFSET 0.20718 -0.56921 2.20259
						CHANNELS 3 Zrotation Yrotation Xrotation
						End Site
						{
							OFFSET 0.00000 -0.00000 1.14243
						}
					}
				}
			}
		}
	}
	JOINT RHipJoint
	{
		OFFSET 0 0 0
		CHANNELS 3 Zrotation Yrotation Xrotation
		JOINT RightUpLeg
		{
			OFFSET -1.40551 -1.84582 0.78394
			CHANNELS 3 Zrotation Yrotation Xrotation
			JOINT RightLeg
			{
				OFFSET -2.56572 -7.04926 0.00000
				CHANNELS 3 Zrotation Yrotation Xrotation
				JOINT RightFoot
				{
					OFFSET -2.57974 -7.08778 0.00000
					CHANNELS 3 Zrotation Yrotation Xrotation
					JOINT RightToeBase
					{
						OFFSET -0.26704 -0.73369 2.20815
						CHANNELS 3 Zrotation Yrotation Xrotation
						End Site
						{
							OFFSET -0.00000 -0.00000 1.16246
						}
					}
				}
			}
		}
	}
	JOINT LowerBack
	{
		OFFSET 0 0 0
		CHANNELS 3 Zrotation Yrotation Xrotation
		JOINT Spine
		{
			OFFSET -0.04690 2.05196 -0.07017
			CHANNELS 3 Zrotation Yrotation Xrotation
			JOINT Spine1
			{
				OFFSET 0.04085 2.05260 0.00800
				CHANNELS 3 Zrotation Yrotation Xrotation
				JOINT Neck
				{
					OFFSET 0 0 0
					CHANNELS 3 Zrotation Yrotation Xrotation
					JOINT Neck1
					{
						OFFSET -0.03582 1.80995 0.19301
						CHANNELS 3 Zrotation Yrotation Xrotation
						JOINT Head
						{
							OFFSET 0.00952 1.80195 -0.36389
							CHANNELS 3 Zrotation Yrotation Xrotation
							End Site
							{
								OFFSET 0.00392 1.85062 -0.14494
							}
						}
					}
				}
				JOINT LeftShoulder
				{
					OFFSET 0 0 0
					CHANNELS 3 Zrotation Yrotation Xrotation
					JOINT LeftArm
					{
						OFFSET 3.55224 1.39726 -0.13667
						CHANNELS 3 Zrotation Yrotation Xrotation
						JOINT LeftForeArm
						{
							OFFSET 5.14507 -0.00000 -0.00000
							CHANNELS 3 Zrotation Yrotation Xrotation
							JOINT LeftHand
							{
								OFFSET 3.50646 -0.00000 0.00000
								CHANNELS 3 Zrotation Yrotation Xrotation
								JOINT LeftFingerBase
								{
									OFFSET 0 0 0
									CHANNELS 3 Zrotation Yrotation Xrotation
									JOINT LeftHandIndex1
									{
										OFFSET 0.62997 -0.00000 0.00000
										CHANNELS 3 Zrotation Yrotation Xrotation
										End Site
										{
											OFFSET 0.50790 -0.00000 0.00000
										}
									}
								}
								JOINT LThumb
								{
									OFFSET 0 0 0
									CHANNELS 3 Zrotation Yrotation Xrotation
									End Site
									{
										OFFSET 0.51565 -0.00000 0.51565
									}
								}
							}
						}
					}
				}
				JOINT RightShoulder
				{
					OFFSET 0 0 0
					CHANNELS 3 Zrotation Yrotation Xrotation
					JOINT RightArm
					{
						OFFSET -3.06467 1.61290 -0.28813
						CHANNELS 3 Zrotation Yrotation Xrotation
						JOINT RightForeArm
						{
							OFFSET -5.23200 -0.00000 -0.00000
							CHANNELS 3 Zrotation Yrotation Xrotation
							JOINT RightHand
							{
								OFFSET -3.65641 -0.00000 0.00000
								CHANNELS 3 Zrotation Yrotation Xrotation
								JOINT RightFingerBase
								{
									OFFSET 0 0 0
									CHANNELS 3 Zrotation Yrotation Xrotation
									JOINT RightHandIndex1
									{
										OFFSET -0.65681 -0.00000 0.00000
										CHANNELS 3 Zrotation Yrotation Xrotation
										End Site
										{
											OFFSET -0.52953 -0.00000 0.00000
										}
									}
								}
								JOINT RThumb
								{
									OFFSET 0 0 0
									CHANNELS 3 Zrotation Yrotation Xrotation
									End Site
									{
										OFFSET -0.53762 -0.00000 0.53762
									}
								}
							}
						}
					}
				}
			}
		}
	}
}
MOTION
Frames: 6
Frame Time: .0083333
1.8784 15.7654 -46.2773 0 0 0 0 0 0 -21 0 0 0 0 0 0 0 0 0 0 0 0 0 0 21 0 0 0 0 0 0 0 0 0 0 0 0 0 0 0 0 0 0 0 0 0 0 -16 0 0 21 0 0 11 0 0 0 -8 0 0 0 0 0 0 0 0 0 0 0 0 0 0 0 0 0 0 0 0 8 0 0 0 0 0 0 0 0 0 0 0 0 0 0 0 0 0
1.8784 15.7654 -46.2773 -1.5746 -7.1885 29.5571 0.0000 0.0000 0.0000 -8.1615 -14.8032 -78.1622 14.1607 19.1620 72.6946 1.2353 -10.9297 -20.1652 0.1151 -2.1874 -6.0237 0.0000 0.0000 0.0000 21.0054 -4.9743 10.2145 -0.4058 -4.0895 11.3287 0.5338 -12.8182 -4.9611 -3.1681 10.9624 -32.1531 1.8322 4.2566 17.9933 -1.7335 5.7877 1.0161 -4.3422 2.6537 -8.5925 -4.1448 -3.7686 -17.6459 0.4091 -4.1899 -2.2899 0.5471 -2.0623 2.4096 -0.0000 -0.0000 0.0000 -82.2643 41.3759 34.5586 104.7124 -59.1661 -72.7057 -0.0000 0.0000 -12.1566 24.0632 -15.0573 -6.6171 -7.1250 0.0000 -0.0000 -2.3721 13.5737 1.7507 -0.0000 -0.0000 0.0000 82.6968 4.3500 47.8006 -113.9628 57.7151 -80.5932 0.0000 -0.0000 -0.1944 -20.6335 2.0067 -0.7554 7.1250 -0.0000 -0.0000 4.5874 -27.8262 1.9213
1.8695 15.7826 -45.9365 -1.5760 -6.5718 29.8614 0.0000 0.0000 0.0000 -8.4394 -15.1022 -77.2522 14.3107 19.2056 73.1513 1.2567 -10.9457 -20.3300 0.0062 -0.5092 -1.3993 0.0000 0.0000 0.0000 21.2567 -3.9675 7.8302 -0.7618 -5.5738 15.5526 0.4127 -12.3709 0.8349 -4.6115 12.9325 -39.1164 1.9459 4.0315 18.1503 -1.7203 5.5198 0.8969 -4.3506 2.5121 -8.8217 -4.2199 -3.7802 -17.5374 0.7624 -4.2100 -2.5320 0.6778 -2.0561 2.3190 0.0000 -0.0000 0.0000 -83.0298 41.2114 33.8003 104.2973 -59.2133 -72.3491 -0.0000 0.0000 -11.6960 24.1679 -13.3999 -5.9371 -7.1250 0.0000 -0.0000 -2.1916 15.3528 1.5343 0.0000 -0.0000 0.0000 82.8724 3.6155 47.6072 -113.5448 57.7981 -80.2396 0.0000 -0.0000 -0.3541 -20.6312 1.6396 -0.6172 7.1250 -0.0000 -0.0000 4.6026 -28.2172 1.8850
1.8619 15.7885 -45.5994 -1.3921 -5.9682 30.1320 0.0000 0.0000 0.0000 -8.8285 -15.5263 -76.2305 14.4241 19.2377 73.4956 1.3981 -10.9168 -21.3736 0.0006 -0.1522 -0.4182 0.0000 0.0000 0.0000 21.2995 -3.3080 5.1471 -1.3278 -7.2972 20.5990 0.3147 -12.1973 3.1618 -4.1046 12.2983 -36.7957 1.9121 3.8246 18.2773 -1.7253 5.2425 0.8550 -4.2843 2.3755 -8.9628 -4.2097 -3.8253 -17.6462 0.9648 -4.2743 -2.7936 0.7376 -2.0779 2.2553 0.0000 -0.0000 0.0000 -83.7923 40.5529 33.0396 103.0170 -59.3500 -71.2485 -0.0000 0.0000 -11.3416 23.9405 -13.1496 -5.7675 -7.1250 0.0000 -0.0000 -2.3327 15.6493 1.6183 0.0000 -0.0000 0.0000 83.0360 2.8796 47.2367 -112.5553 57.9876 -79.4015 0.0000 -0.0000 -0.4790 -20.7084 1.5337 -0.5797 7.1250 -0.0000 -0.0000 4.5469 -28.3295 1.8500
1.8518 15.7967 -45.2652 -1.2469 -5.4600 30.3454 0.0000 0.0000 0.0000 -9.1451 -15.8590 -75.0824 14.5106 19.2617 73.7580 1.5752 -11.2309 -22.6671 0.0025 -0.3206 -0.8809 0.0000 0.0000 0.0000 21.3267 -2.6848 2.8062 -1.9484 -8.7578 25.0406 0.1902 -12.5808 6.0210 -4.2080 12.4322 -37.2785 1.8252 3.6473 18.4856 -1.7046 4.9956 0.8204 -4.1727 2.2547 -9.1454 -4.2654 -3.8563 -17.6832 1.2113 -4.3109 -3.0286 0.8263 -2.0846 2.1907 -0.0000 -0.0000 0.0000 -84.4817 39.6857 32.4726 101.8428 -59.4634 -70.2376 -0.0000 0.0000 -11.0711 23.6582 -13.0421 -5.6462 -7.1250 0.0000 -0.0000 -2.5208 15.7966 1.7411 -0.0000 -0.0000 0.0000 83.1429 2.1434 46.8926 -111.1449 58.2413 -78.2039 0.0000 -0.0000 -0.7596 -20.7830 1.1724 -0.4449 7.1250 -0.0000 -0.0000 4.5031 -28.7142 1.7909
1.8402 15.8292 -44.9201 -0.8308 -5.1352 30.5594 0.0000 0.0000 0.0000 -9.8578 -16.2176 -73.6869 14.5300 19.2670 73.8166 1.7754 -11.3539 -24.0312 0.0138 -0.7587 -2.0850 0.0000 0.0000 0.0000 21.0414 -2.3471 -0.0386 -2.7209 -10.2289 29.7211 0.2125 -13.3829 6.4529 -2.8724 10.4855 -30.5637 1.3791 3.4941 18.5533 -1.7257 4.6993 0.8275 -3.8761 2.1292 -9.2323 -4.1199 -3.8451 -17.7836 1.2400 -4.3217 -3.2727 0.8096 -2.0878 2.1211 0.0000 0.0000 0.0000 -85.1617 37.9082 32.3955 99.9389 -59.6234 -68.5964 -0.0000 0.0000 -10.8940 24.1946 -13.4344 -5.9594 -7.1250 0.0000 -0.0000 -2.1754 15.3124 1.5248 0.0000 0.0000 0.0000 83.3847 1.2161 46.4944 -108.1906 58.7120 -75.6854 0.0000 -0.0000 -1.5218 -21.0615 1.0204 -0.3929 7.1250 -0.0000 -0.0000 4.2924 -28.8753 1.6902
